<svg width="270" height="73" viewBox="0 0 270 73" fill="none" xmlns="http://www.w3.org/2000/svg">
<path fill-rule="evenodd" clip-rule="evenodd" d="M9.06667 0C4.05167 0 0 4.05167 0 9.06667V63.4667C0 68.4817 4.05167 72.5333 9.06667 72.5333H58.9333C63.9483 72.5333 68 68.4817 68 63.4667V9.06667C68 4.05167 63.9483 0 58.9333 0H9.06667ZM31.7333 9.06667C29.2258 9.06667 27.2 11.0925 27.2 13.6V27.2C27.2 29.7075 29.2258 31.7333 31.7333 31.7333H36.2667C38.7742 31.7333 40.8 29.7075 40.8 27.2V13.6C40.8 11.0925 38.7742 9.06667 36.2667 9.06667H31.7333ZM9.06667 13.6C9.06667 11.0925 11.0925 9.06667 13.6 9.06667H18.1333C20.6408 9.06667 22.6667 11.0925 22.6667 13.6V45.3333C22.6667 47.8408 20.6408 49.8667 18.1333 49.8667H13.6C11.0925 49.8667 9.06667 47.8408 9.06667 45.3333V13.6ZM49.8667 9.06667C47.3592 9.06667 45.3333 11.0925 45.3333 13.6V58.9333C45.3333 61.4408 47.3592 63.4667 49.8667 63.4667H54.4C56.9075 63.4667 58.9333 61.4408 58.9333 58.9333V13.6C58.9333 11.0925 56.9075 9.06667 54.4 9.06667H49.8667Z" fill="white"/>
<path d="M102.656 24.25V47H99.6406V24.25H102.656ZM116.391 24.25L106.938 34.8594L101.625 40.375L101.125 37.1562L105.125 32.75L112.766 24.25H116.391ZM113.484 47L105.062 35.9062L106.859 33.5156L117.078 47H113.484ZM129.266 44.1094V35.4062C129.266 34.7396 129.13 34.1615 128.859 33.6719C128.599 33.1719 128.203 32.7865 127.672 32.5156C127.141 32.2448 126.484 32.1094 125.703 32.1094C124.974 32.1094 124.333 32.2344 123.781 32.4844C123.24 32.7344 122.812 33.0625 122.5 33.4688C122.198 33.875 122.047 34.3125 122.047 34.7812H119.156C119.156 34.1771 119.312 33.5781 119.625 32.9844C119.938 32.3906 120.385 31.8542 120.969 31.375C121.562 30.8854 122.271 30.5 123.094 30.2188C123.927 29.9271 124.854 29.7812 125.875 29.7812C127.104 29.7812 128.188 29.9896 129.125 30.4062C130.073 30.8229 130.812 31.4531 131.344 32.2969C131.885 33.1302 132.156 34.1771 132.156 35.4375V43.3125C132.156 43.875 132.203 44.474 132.297 45.1094C132.401 45.7448 132.552 46.2917 132.75 46.75V47H129.734C129.589 46.6667 129.474 46.224 129.391 45.6719C129.307 45.1094 129.266 44.5885 129.266 44.1094ZM129.766 36.75L129.797 38.7812H126.875C126.052 38.7812 125.318 38.849 124.672 38.9844C124.026 39.1094 123.484 39.3021 123.047 39.5625C122.609 39.8229 122.276 40.151 122.047 40.5469C121.818 40.9323 121.703 41.3854 121.703 41.9062C121.703 42.4375 121.823 42.9219 122.062 43.3594C122.302 43.7969 122.661 44.1458 123.141 44.4062C123.63 44.6562 124.229 44.7812 124.938 44.7812C125.823 44.7812 126.604 44.5938 127.281 44.2188C127.958 43.8438 128.495 43.3854 128.891 42.8438C129.297 42.3021 129.516 41.776 129.547 41.2656L130.781 42.6562C130.708 43.0938 130.51 43.5781 130.188 44.1094C129.865 44.6406 129.432 45.151 128.891 45.6406C128.359 46.1198 127.724 46.5208 126.984 46.8438C126.255 47.1562 125.432 47.3125 124.516 47.3125C123.37 47.3125 122.365 47.0885 121.5 46.6406C120.646 46.1927 119.979 45.5938 119.5 44.8438C119.031 44.0833 118.797 43.2344 118.797 42.2969C118.797 41.3906 118.974 40.5938 119.328 39.9062C119.682 39.2083 120.193 38.6302 120.859 38.1719C121.526 37.7031 122.328 37.349 123.266 37.1094C124.203 36.8698 125.25 36.75 126.406 36.75H129.766ZM139.594 33.7031V47H136.703V30.0938H139.438L139.594 33.7031ZM138.906 37.9062L137.703 37.8594C137.714 36.7031 137.885 35.6354 138.219 34.6562C138.552 33.6667 139.021 32.8073 139.625 32.0781C140.229 31.349 140.948 30.7865 141.781 30.3906C142.625 29.9844 143.557 29.7812 144.578 29.7812C145.411 29.7812 146.161 29.8958 146.828 30.125C147.495 30.3438 148.062 30.6979 148.531 31.1875C149.01 31.6771 149.375 32.3125 149.625 33.0938C149.875 33.8646 150 34.8073 150 35.9219V47H147.094V35.8906C147.094 35.0052 146.964 34.2969 146.703 33.7656C146.443 33.224 146.062 32.8333 145.562 32.5938C145.062 32.3438 144.448 32.2188 143.719 32.2188C143 32.2188 142.344 32.3698 141.75 32.6719C141.167 32.974 140.661 33.3906 140.234 33.9219C139.818 34.4531 139.49 35.0625 139.25 35.75C139.021 36.4271 138.906 37.1458 138.906 37.9062ZM154.375 23H157.281V43.7188L157.031 47H154.375V23ZM168.703 38.4062V38.7344C168.703 39.9635 168.557 41.1042 168.266 42.1562C167.974 43.1979 167.547 44.1042 166.984 44.875C166.422 45.6458 165.734 46.2448 164.922 46.6719C164.109 47.099 163.177 47.3125 162.125 47.3125C161.052 47.3125 160.109 47.1302 159.297 46.7656C158.495 46.3906 157.818 45.8542 157.266 45.1562C156.714 44.4583 156.271 43.6146 155.938 42.625C155.615 41.6354 155.391 40.5208 155.266 39.2812V37.8438C155.391 36.5938 155.615 35.474 155.938 34.4844C156.271 33.4948 156.714 32.651 157.266 31.9531C157.818 31.2448 158.495 30.7083 159.297 30.3438C160.099 29.9688 161.031 29.7812 162.094 29.7812C163.156 29.7812 164.099 29.9896 164.922 30.4062C165.745 30.8125 166.432 31.3958 166.984 32.1562C167.547 32.9167 167.974 33.8281 168.266 34.8906C168.557 35.9427 168.703 37.1146 168.703 38.4062ZM165.797 38.7344V38.4062C165.797 37.5625 165.719 36.7708 165.562 36.0312C165.406 35.2812 165.156 34.625 164.812 34.0625C164.469 33.4896 164.016 33.0417 163.453 32.7188C162.891 32.3854 162.198 32.2188 161.375 32.2188C160.646 32.2188 160.01 32.3438 159.469 32.5938C158.938 32.8438 158.484 33.1823 158.109 33.6094C157.734 34.026 157.427 34.5052 157.188 35.0469C156.958 35.5781 156.786 36.1302 156.672 36.7031V40.4688C156.839 41.1979 157.109 41.901 157.484 42.5781C157.87 43.2448 158.38 43.7917 159.016 44.2188C159.661 44.6458 160.458 44.8594 161.406 44.8594C162.188 44.8594 162.854 44.7031 163.406 44.3906C163.969 44.0677 164.422 43.625 164.766 43.0625C165.12 42.5 165.38 41.849 165.547 41.1094C165.714 40.3698 165.797 39.5781 165.797 38.7344ZM182.328 44.1094V35.4062C182.328 34.7396 182.193 34.1615 181.922 33.6719C181.661 33.1719 181.266 32.7865 180.734 32.5156C180.203 32.2448 179.547 32.1094 178.766 32.1094C178.036 32.1094 177.396 32.2344 176.844 32.4844C176.302 32.7344 175.875 33.0625 175.562 33.4688C175.26 33.875 175.109 34.3125 175.109 34.7812H172.219C172.219 34.1771 172.375 33.5781 172.688 32.9844C173 32.3906 173.448 31.8542 174.031 31.375C174.625 30.8854 175.333 30.5 176.156 30.2188C176.99 29.9271 177.917 29.7812 178.938 29.7812C180.167 29.7812 181.25 29.9896 182.188 30.4062C183.135 30.8229 183.875 31.4531 184.406 32.2969C184.948 33.1302 185.219 34.1771 185.219 35.4375V43.3125C185.219 43.875 185.266 44.474 185.359 45.1094C185.464 45.7448 185.615 46.2917 185.812 46.75V47H182.797C182.651 46.6667 182.536 46.224 182.453 45.6719C182.37 45.1094 182.328 44.5885 182.328 44.1094ZM182.828 36.75L182.859 38.7812H179.938C179.115 38.7812 178.38 38.849 177.734 38.9844C177.089 39.1094 176.547 39.3021 176.109 39.5625C175.672 39.8229 175.339 40.151 175.109 40.5469C174.88 40.9323 174.766 41.3854 174.766 41.9062C174.766 42.4375 174.885 42.9219 175.125 43.3594C175.365 43.7969 175.724 44.1458 176.203 44.4062C176.693 44.6562 177.292 44.7812 178 44.7812C178.885 44.7812 179.667 44.5938 180.344 44.2188C181.021 43.8438 181.557 43.3854 181.953 42.8438C182.359 42.3021 182.578 41.776 182.609 41.2656L183.844 42.6562C183.771 43.0938 183.573 43.5781 183.25 44.1094C182.927 44.6406 182.495 45.151 181.953 45.6406C181.422 46.1198 180.786 46.5208 180.047 46.8438C179.318 47.1562 178.495 47.3125 177.578 47.3125C176.432 47.3125 175.427 47.0885 174.562 46.6406C173.708 46.1927 173.042 45.5938 172.562 44.8438C172.094 44.0833 171.859 43.2344 171.859 42.2969C171.859 41.3906 172.036 40.5938 172.391 39.9062C172.745 39.2083 173.255 38.6302 173.922 38.1719C174.589 37.7031 175.391 37.349 176.328 37.1094C177.266 36.8698 178.312 36.75 179.469 36.75H182.828ZM192.656 33.7031V47H189.766V30.0938H192.5L192.656 33.7031ZM191.969 37.9062L190.766 37.8594C190.776 36.7031 190.948 35.6354 191.281 34.6562C191.615 33.6667 192.083 32.8073 192.688 32.0781C193.292 31.349 194.01 30.7865 194.844 30.3906C195.688 29.9844 196.62 29.7812 197.641 29.7812C198.474 29.7812 199.224 29.8958 199.891 30.125C200.557 30.3438 201.125 30.6979 201.594 31.1875C202.073 31.6771 202.438 32.3125 202.688 33.0938C202.938 33.8646 203.062 34.8073 203.062 35.9219V47H200.156V35.8906C200.156 35.0052 200.026 34.2969 199.766 33.7656C199.505 33.224 199.125 32.8333 198.625 32.5938C198.125 32.3438 197.51 32.2188 196.781 32.2188C196.062 32.2188 195.406 32.3698 194.812 32.6719C194.229 32.974 193.724 33.3906 193.297 33.9219C192.88 34.4531 192.552 35.0625 192.312 35.75C192.083 36.4271 191.969 37.1458 191.969 37.9062ZM224.25 26.2656L216.719 47H213.641L222.312 24.25H224.297L224.25 26.2656ZM230.562 47L223.016 26.2656L222.969 24.25H224.953L233.656 47H230.562ZM230.172 38.5781V41.0469H217.391V38.5781H230.172ZM239.156 33.3438V53.5H236.25V30.0938H238.906L239.156 33.3438ZM250.547 38.4062V38.7344C250.547 39.9635 250.401 41.1042 250.109 42.1562C249.818 43.1979 249.391 44.1042 248.828 44.875C248.276 45.6458 247.594 46.2448 246.781 46.6719C245.969 47.099 245.036 47.3125 243.984 47.3125C242.911 47.3125 241.964 47.1354 241.141 46.7812C240.318 46.4271 239.62 45.9115 239.047 45.2344C238.474 44.5573 238.016 43.7448 237.672 42.7969C237.339 41.849 237.109 40.7812 236.984 39.5938V37.8438C237.109 36.5938 237.344 35.474 237.688 34.4844C238.031 33.4948 238.484 32.651 239.047 31.9531C239.62 31.2448 240.312 30.7083 241.125 30.3438C241.938 29.9688 242.875 29.7812 243.938 29.7812C245 29.7812 245.943 29.9896 246.766 30.4062C247.589 30.8125 248.281 31.3958 248.844 32.1562C249.406 32.9167 249.828 33.8281 250.109 34.8906C250.401 35.9427 250.547 37.1146 250.547 38.4062ZM247.641 38.7344V38.4062C247.641 37.5625 247.552 36.7708 247.375 36.0312C247.198 35.2812 246.922 34.625 246.547 34.0625C246.182 33.4896 245.714 33.0417 245.141 32.7188C244.568 32.3854 243.885 32.2188 243.094 32.2188C242.365 32.2188 241.729 32.3438 241.188 32.5938C240.656 32.8438 240.203 33.1823 239.828 33.6094C239.453 34.026 239.146 34.5052 238.906 35.0469C238.677 35.5781 238.505 36.1302 238.391 36.7031V40.75C238.599 41.4792 238.891 42.1667 239.266 42.8125C239.641 43.4479 240.141 43.9635 240.766 44.3594C241.391 44.7448 242.177 44.9375 243.125 44.9375C243.906 44.9375 244.578 44.776 245.141 44.4531C245.714 44.1198 246.182 43.6667 246.547 43.0938C246.922 42.5208 247.198 41.8646 247.375 41.125C247.552 40.375 247.641 39.5781 247.641 38.7344ZM257.125 33.3438V53.5H254.219V30.0938H256.875L257.125 33.3438ZM268.516 38.4062V38.7344C268.516 39.9635 268.37 41.1042 268.078 42.1562C267.786 43.1979 267.359 44.1042 266.797 44.875C266.245 45.6458 265.562 46.2448 264.75 46.6719C263.938 47.099 263.005 47.3125 261.953 47.3125C260.88 47.3125 259.932 47.1354 259.109 46.7812C258.286 46.4271 257.589 45.9115 257.016 45.2344C256.443 44.5573 255.984 43.7448 255.641 42.7969C255.307 41.849 255.078 40.7812 254.953 39.5938V37.8438C255.078 36.5938 255.312 35.474 255.656 34.4844C256 33.4948 256.453 32.651 257.016 31.9531C257.589 31.2448 258.281 30.7083 259.094 30.3438C259.906 29.9688 260.844 29.7812 261.906 29.7812C262.969 29.7812 263.911 29.9896 264.734 30.4062C265.557 30.8125 266.25 31.3958 266.812 32.1562C267.375 32.9167 267.797 33.8281 268.078 34.8906C268.37 35.9427 268.516 37.1146 268.516 38.4062ZM265.609 38.7344V38.4062C265.609 37.5625 265.521 36.7708 265.344 36.0312C265.167 35.2812 264.891 34.625 264.516 34.0625C264.151 33.4896 263.682 33.0417 263.109 32.7188C262.536 32.3854 261.854 32.2188 261.062 32.2188C260.333 32.2188 259.698 32.3438 259.156 32.5938C258.625 32.8438 258.172 33.1823 257.797 33.6094C257.422 34.026 257.115 34.5052 256.875 35.0469C256.646 35.5781 256.474 36.1302 256.359 36.7031V40.75C256.568 41.4792 256.859 42.1667 257.234 42.8125C257.609 43.4479 258.109 43.9635 258.734 44.3594C259.359 44.7448 260.146 44.9375 261.094 44.9375C261.875 44.9375 262.547 44.776 263.109 44.4531C263.682 44.1198 264.151 43.6667 264.516 43.0938C264.891 42.5208 265.167 41.8646 265.344 41.125C265.521 40.375 265.609 39.5781 265.609 38.7344Z" fill="white"/>
</svg>
